<svg width="128" height="129" viewBox="0 0 128 129" fill="none" xmlns="http://www.w3.org/2000/svg">
<rect x="41.9474" y="10" width="43.1053" height="108.205" fill="#34495E"/>
<path fill-rule="evenodd" clip-rule="evenodd" d="M95.0001 22.0228H85.0528V42.7895H88.9212L95.0001 22.0228Z" fill="#253646"/>
<path fill-rule="evenodd" clip-rule="evenodd" d="M95.0002 50.4404H85.0528V71.2071H88.9212L95.0002 50.4404Z" fill="#253646"/>
<path fill-rule="evenodd" clip-rule="evenodd" d="M95.0002 78.8579H85.0528V99.6246H88.9212L95.0002 78.8579Z" fill="#253646"/>
<path fill-rule="evenodd" clip-rule="evenodd" d="M32 22.0228H41.9474V42.7895H38.079L32 22.0228Z" fill="#253646"/>
<path fill-rule="evenodd" clip-rule="evenodd" d="M32 50.4404H41.9474V71.2071H38.0789L32 50.4404Z" fill="#253646"/>
<path fill-rule="evenodd" clip-rule="evenodd" d="M32 78.8579H41.9474V99.6246H38.0789L32 78.8579Z" fill="#253646"/>
<ellipse cx="62.9475" cy="90.8808" rx="11.0526" ry="10.9298" fill="#27AE60"/>
<path fill-rule="evenodd" clip-rule="evenodd" d="M73.8766 92.5202C73.958 91.9855 74.0001 91.438 74.0001 90.8808C74.0001 84.8444 69.0517 79.9509 62.9475 79.9509C56.8433 79.9509 51.8948 84.8444 51.8948 90.8808C51.8948 91.438 51.937 91.9855 52.0184 92.5202C52.8183 87.2616 57.4067 83.2299 62.9475 83.2299C68.4882 83.2299 73.0767 87.2616 73.8766 92.5202Z" fill="#253646"/>
<ellipse cx="62.9475" cy="34.0457" rx="11.0526" ry="10.9298" fill="#E74C3C"/>
<path fill-rule="evenodd" clip-rule="evenodd" d="M73.8766 35.6851C73.958 35.1503 74.0001 34.6029 74.0001 34.0456C74.0001 28.0093 69.0517 23.1158 62.9475 23.1158C56.8433 23.1158 51.8948 28.0093 51.8948 34.0456C51.8948 34.6029 51.937 35.1503 52.0184 35.6851C52.8183 30.4265 57.4067 26.3948 62.9475 26.3948C68.4882 26.3948 73.0767 30.4265 73.8766 35.6851Z" fill="#253646"/>
<ellipse cx="62.9475" cy="62.4632" rx="11.0526" ry="10.9298" fill="#E67E22"/>
<path fill-rule="evenodd" clip-rule="evenodd" d="M73.8766 64.1027C73.958 63.5679 74.0001 63.0204 74.0001 62.4632C74.0001 56.4268 69.0517 51.5334 62.9475 51.5334C56.8433 51.5334 51.8948 56.4268 51.8948 62.4632C51.8948 63.0204 51.937 63.5679 52.0184 64.1027C52.8183 58.8441 57.4067 54.8123 62.9475 54.8123C68.4882 54.8123 73.0767 58.8441 73.8766 64.1027Z" fill="#253646"/>
</svg>
